<svg width="18" height="18" viewBox="0 0 18 18" fill="none" xmlns="http://www.w3.org/2000/svg">
<path d="M17.085 6.7448L17.0851 6.74481C17.2664 6.76121 17.4205 6.88374 17.4773 7.05814C17.5344 7.23388 17.4816 7.42427 17.3441 7.54495L13.4164 10.989L13.1925 11.1853L13.2585 11.4756L14.4165 16.5759C14.4573 16.7568 14.3872 16.9413 14.2392 17.0483L14.2388 17.0486C14.0903 17.1562 13.8933 17.1647 13.7363 17.0709L9.25665 14.3919L9.00005 14.2384L8.74343 14.3919L4.26286 17.0709L4.26272 17.071C4.19024 17.1144 4.10961 17.1357 4.0289 17.1357C3.93458 17.1357 3.84149 17.1069 3.76181 17.049L3.76082 17.0483C3.61289 16.9414 3.54275 16.7569 3.58354 16.576C3.58356 16.576 3.58357 16.5759 3.58358 16.5759L4.74158 11.4756L4.8075 11.1853L4.58364 10.989L0.655856 7.54487C0.655844 7.54486 0.655833 7.54485 0.655821 7.54484C0.518482 7.42436 0.465875 7.23364 0.522437 7.05899C0.579917 6.88429 0.734077 6.76167 0.915387 6.74477C0.915529 6.74476 0.915672 6.74475 0.915815 6.74473L6.11196 6.27307L6.4093 6.24608L6.52658 5.97151L8.58009 1.16382L8.58019 1.16358C8.65224 0.994647 8.81636 0.88623 9.00002 0.88623C9.18324 0.88623 9.34781 0.994293 9.42094 1.16419C9.421 1.16434 9.42107 1.16449 9.42113 1.16464L11.4743 5.97151L11.5916 6.24607L11.8889 6.27307L17.085 6.7448Z" stroke="black"/>
</svg>
